<svg version="1.1" id="e2939556-4c85-4682-97ce-70b56a1c0197"
	 xmlns="http://www.w3.org/2000/svg" xmlns:xlink="http://www.w3.org/1999/xlink" x="0px" y="0px" width="754.637px"
	 height="585.218px" viewBox="-2.5 485.685 754.637 585.218" style="enable-background:new -2.5 485.685 754.637 585.218;"
	 xml:space="preserve">
<title>shapes</title>
<path style="fill:#a932c61f;" d="M752.138,485.685H-2.5v412.922c17.057,20.216,33.584,42.222,49.171,62.848
	c56.399,74.646,141.563,120.507,224.488,107.14c26.505-4.269,55.28-17.337,66.217-46.811
	c16.127-43.452-14.897-89.473-25.555-135.314c-7.779-33.494-3.809-71.587,13.527-99.381c17.337-27.795,48.471-43.212,76.326-34.364
	c27.855,8.848,49.331,43.602,45.541,78.095c-1.86,16.937-9.108,32.484-11.058,49.391c-1.95,16.907,4.109,37.753,17.997,40.992
	c6.069,1.42,12.228-0.86,18.067-3.229c70.797-28.715,136.584-75.246,191.964-135.754c25.145-27.475,53.31-64.658,53.75-108.31
	c0.28-22.486-8.818-43.822-20.716-61.128c-11.898-17.307-26.615-31.374-40.272-46.651c-5.489-6.149-11.288-14.077-9.998-22.996
	c1.75-12.148,14.487-15.857,24.665-16.857l34.743-3.489c15.437-1.55,33.044-4.619,41.432-20.326
	C750.512,497.28,752,491.538,752.138,485.685z"/>
</svg>
