<?xml version="1.0" encoding="utf-8"?>
<!-- Generator: Adobe Illustrator 24.1.1, SVG Export Plug-In . SVG Version: 6.00 Build 0)  -->
<svg version="1.1" id="Layer_1" xmlns="http://www.w3.org/2000/svg" xmlns:xlink="http://www.w3.org/1999/xlink" x="0px" y="0px"
	 viewBox="0 0 1440 192" style="enable-background:new 0 0 1440 192;" xml:space="preserve">
<style type="text/css">
	.st0{fill:#882BC0;}
</style>
<path class="st0" d="M0,96l26.7,16c26.6,16,80.3,48,133.3,53.3c53.3,5.7,107-16.3,160-32C373.3,117,427,107,480,112
	c53.3,5,107,27,160,26.7c53.3,0.3,107-21.7,160-37.4C853.3,85,907,75,960,85.3c53.3,10.7,107,42.7,160,64
	c53.3,21.7,107,31.7,160,5.4C1333.3,128,1387,64,1413,32l27-32v192h-26.7c-26.6,0-80.3,0-133.3,0c-53.3,0-107,0-160,0
	c-53.3,0-107,0-160,0c-53.3,0-107,0-160,0c-53.3,0-107,0-160,0c-53.3,0-107,0-160,0c-53.3,0-107,0-160,0c-53.3,0-107,0-160,0
	c-53.3,0-107,0-133,0H0V96z"/>
</svg>
